<svg id="Layer_1" data-name="Layer 1" xmlns="http://www.w3.org/2000/svg" viewBox="0 0 512 512"><title>fog</title><rect width="512" height="512" fill="#24b6ea"/><path d="M104.13,362.12a17.7,17.7,0,0,0,24.41,2c30.27-24.7,54.18-44.22,119.06-9.4,31.17,16.74,56.31,23,77.24,23,36.63,0,60.38-19.37,80.91-36.12A16.47,16.47,0,0,0,407.87,318a17.69,17.69,0,0,0-24.41-2c-30.27,24.71-54.18,44.22-119.08,9.39-85.71-46-125.87-13.23-158.13,13.1A16.47,16.47,0,0,0,104.13,362.12Z" fill="#fff"/><path d="M383.46,147.85c-30.27,24.71-54.18,44.22-119.08,9.39-85.71-46-125.87-13.22-158.13,13.1A16.45,16.45,0,0,0,104.13,194a17.69,17.69,0,0,0,24.41,2c30.27-24.69,54.19-44.22,119.06-9.39,31.17,16.71,56.31,23,77.24,23,36.63,0,60.38-19.37,80.91-36.13a16.45,16.45,0,0,0,2.11-23.68A17.7,17.7,0,0,0,383.46,147.85Z" fill="#fff"/><path d="M128.54,280.1c30.27-24.69,54.19-44.22,119.06-9.39,31.17,16.72,56.31,23,77.24,23,36.63,0,60.38-19.37,80.91-36.12a16.47,16.47,0,0,0,2.11-23.69,17.69,17.69,0,0,0-24.41-2c-30.27,24.71-54.18,44.22-119.08,9.39-85.71-46-125.87-13.23-158.13,13.1a16.45,16.45,0,0,0-2.11,23.68A17.69,17.69,0,0,0,128.54,280.1Z" fill="#fff"/></svg>